<svg id="Ebene_1" data-name="Ebene 1" xmlns="http://www.w3.org/2000/svg" viewBox="0 0 459.38 52.94"><defs><style>.cls-1{fill:#cc151d;}</style></defs><title>Logo_PicassoTravel</title><path class="cls-1" d="M224.12,15.52l-4.87,36.42c11,0,17.45-7.74,19-18.8,1.38-10.17-2.63-17.62-14.09-17.62ZM216,51.94l4.85-36.42c-11.46,0-17.68,7.44-19,17.62-1.45,11.06,3.13,18.8,14.16,18.8ZM197.49,31.89l2.1-16.14H184.23l13.26,16.14Zm-15.37-14.3a4.24,4.24,0,0,1,.91-1.84h-1.65c-5.62,0-9.63,5-10.28,10.17-.45,3.54,1,5.38,3.17,8l9.29,11.43c1.86,2.36,2.29,3.1,2.13,4.35a3.37,3.37,0,0,1-.7,2h3.43c4.62,0,9.23-2.73,9.9-7.89.49-3.76-1.51-6.71-5.12-11.21l-7.3-8.92c-3-3.69-4-4.72-3.78-6.12ZM166,31.89l2-16.14H152.68L166,31.89Zm-15.43-14.3a4.22,4.22,0,0,1,.9-1.84h-1.65c-5.62,0-9.61,5-10.23,10.17-.43,3.54,1.06,5.38,3.2,8l9.34,11.43c1.87,2.36,2.3,3.1,2.15,4.35a3.36,3.36,0,0,1-.7,2H157c4.62,0,9.22-2.73,9.87-7.89.47-3.76-1.54-6.71-5.16-11.21l-7.34-8.92c-3.06-3.69-4-4.72-3.81-6.12Zm1.82,34.13L139.23,35.65l-2,16.07ZM136.32,28.87c.94-7.74-1.15-13.34-13-13.34A21.51,21.51,0,0,0,118,16a5.86,5.86,0,0,1,3.48,2.87c.77,1.69.71,3.46.43,5.82l-3.24,27.06h14.91l2.78-22.85ZM113.09,16A8.34,8.34,0,0,0,105,23.12,6.19,6.19,0,0,0,111.44,30a8,8,0,0,0,7.77-6.86c.48-4.05-2.22-7.15-6.12-7.15ZM98.6,32.33l1.93-16.59H85.39L98.6,32.33Zm-18,15.26,3.64-31.85c-10.27,0-17.63,8.18-18.67,17.55-1.15,10.25,4.4,18.65,16.55,18.65,6.19,0,11.69-3.76,15-6.71l.74-6.34c-3.08,4-9.64,9.14-14.72,9.14a6.52,6.52,0,0,1-2.56-.44ZM64.2,8.23a5.56,5.56,0,0,0-5.59-6.41,7.41,7.41,0,0,0-7.23,6.41,5.65,5.65,0,0,0,5.84,6.19,7.21,7.21,0,0,0,7-6.19Zm.21,7.52h-15l-3.93,36H60.4l4-36ZM45.65,16c.91-8.4-2.87-15-14.06-15H26.71L23.54,30.93H27.8c11.14,0,16.92-6.41,17.85-14.89ZM18.06,51.72,23.41,1h-18L.16,51.72Zm82.53-10.17c-.63,5.38,3,10.17,8.43,10.17h6.34l2.37-19.9H112c-5.68,0-10.74,4.28-11.38,9.73Zm70.11-5.9-2,16.07h15.14l-13.1-16.07Z"/><path class="cls-1" d="M459.21,1H445l-6.6,50.72h14.1L459.21,1ZM437.57,32.18c.47-3.61.46-9.58-2.29-12.9-2.52-3-5.33-3.76-9.5-3.76l-2.3,18H437.4l.17-1.33Zm-19,15.19,4.05-31.85c-9.71,0-16.82,8.18-18,17.55-1.28,10.25,3.77,18.87,15.26,18.87,5.85,0,12.82-4.28,16-7.22l.76-5.9c-4.27,5.16-10.33,9-15.7,9a5.79,5.79,0,0,1-2.41-.44Zm-23.51-10.1,10.32-21.52H389.9l5.2,21.52Zm-6.8,14.45,4.77-10-6.43-25.95H371l9.36,36ZM367.42,28.87c.93-7.74-1-13.34-12.22-13.34a19.3,19.3,0,0,0-5.08.44,5.6,5.6,0,0,1,3.28,2.87c.72,1.69.65,3.46.38,5.82l-3.19,27.06h14.1l2.74-22.85ZM345.52,16a8.1,8.1,0,0,0-7.7,7.15A6,6,0,0,0,343.89,30a7.81,7.81,0,0,0,7.38-6.86c.48-4.05-2.06-7.15-5.75-7.15Zm-11.75,6.71c.47-4.05-2.08-7.15-5.77-7.15a8.08,8.08,0,0,0-7.68,7.15,6,6,0,0,0,6.08,6.85,7.79,7.79,0,0,0,7.36-6.85Zm-18.5,29,4.06-36H305.16l-4,36ZM300.06,23.48,302.54,1H291.46l8.6,22.48ZM284.82,51.72,290.33,1h-17L267.9,51.72ZM258.73,23.48,272.16,1H261.08l-2.35,22.48Zm74.84,18.06c-.62,5.38,2.78,10.17,7.92,10.17h6l2.34-19.9h-5.44a11.11,11.11,0,0,0-10.81,9.73Z"/></svg>